<?xml version="1.0" encoding="UTF-8" standalone="no"?>
<svg width="100px" height="100px" viewBox="0 0 100 100" version="1.1" xmlns="http://www.w3.org/2000/svg" xmlns:xlink="http://www.w3.org/1999/xlink" xmlns:sketch="http://www.bohemiancoding.com/sketch/ns">
    <!-- Generator: Sketch 3.3.3 (12081) - http://www.bohemiancoding.com/sketch -->
    <title>boy</title>
    <desc>Created with Sketch.</desc>
    <defs>
        <circle id="path-1" cx="50" cy="50" r="50"></circle>
        <path id="path-3" d="M0.146747423,36.9978918 L58.5167113,36.9978918 L58.5167113,15.2014072 C58.5167113,10.0074897 53.5414175,7.08494845 48.9156649,5.74240206 L29.3315155,0.0534793814 L9.78758247,5.71373711 C5.15969072,7.05414433 0.146747423,10.0074897 0.146747423,15.2014072 L0.146747423,36.9978918"></path>
    </defs>
    <g id="Page-1" stroke="none" stroke-width="1" fill="none" fill-rule="evenodd" sketch:type="MSPage">
        <g id="Step-2" sketch:type="MSArtboardGroup" transform="translate(-35.000000, -369.000000)">
            <g id="Gender-icons" sketch:type="MSLayerGroup" transform="translate(35.000000, 369.000000)">
                <g id="boy">
                    <mask id="mask-2" sketch:name="Mask Copy" fill="white">
                        <use xlink:href="#path-1"></use>
                    </mask>
                    <use id="Mask-Copy" opacity="0.649195429" fill="#5090FF" sketch:type="MSShapeGroup" xlink:href="#path-1"></use>
                    <g id="guy" mask="url(#mask-2)">
                        <g transform="translate(21.000000, 17.000000)">
                            <path d="M23.9668918,0.605386598 C22.2807938,1.29420103 21.790067,2.30560309 20.6768402,2.87847423 C19.0450773,3.72858247 18.3815052,3.37091237 17.1566134,4.47986082 C15.6108454,5.88187629 15.5787577,6.9963866 14.6439381,8.54985567 C14.0030412,9.61430928 13.2325103,10.2042938 12.8256392,11.4587062 C12.4350258,12.6664845 12.3849691,14.5429691 12.1800361,15.8307526 C11.1237113,22.420268 12.281433,29.5231856 13.6226959,31.3479021 C13.6475103,27.5435928 13.9204691,25.4335103 14.8368918,23.4590515 C15.4812113,22.067732 16.7249278,21.9616289 18.1513299,20.5912732 C19.3552577,19.432268 20.132634,18.3417165 21.9676186,17.7684175 C23.522799,17.2858196 24.5419021,17.6490515 25.8100052,17.507866 C28.3278144,17.2259227 29.1428402,16.0202835 30.6257165,16.4742165 C32.0534021,16.9020515 32.746067,17.6717268 34.1660515,18.0165619 C35.6446495,18.3776546 36.6812938,17.9566649 37.4163144,18.2073763 C39.0707526,18.7622784 39.3124794,19.829299 40.5412216,20.7328866 C41.6963763,21.5812835 43.4094278,22.4155619 43.9775928,23.6644124 C45.1772423,26.3050103 45.3423866,27.2954485 45.4095567,31.169067 C46.7563814,28.0364588 47.9731443,20.3362835 46.7165928,14.2169588 C46.5369021,13.3309124 46.435933,12.1847423 46.1189072,11.3885412 C45.0604433,8.71628351 44.036634,8.55969588 43.3058918,7.21287113 C42.6615722,6.02135052 42.4472268,5.03690206 41.3609536,4.09095876 C40.3264485,3.19293299 39.6953918,3.2528299 38.0931495,2.51096392 C36.5281289,1.77936598 35.9783608,0.812886598 34.4176186,0.29306701 C32.8846856,-0.215201031 31.4313299,0.364087629 29.2318299,0.54121134 C26.886866,0.736304124 25.610634,-0.0641752577 23.9668918,0.605386598" id="Fill-1" fill="#282B29" sketch:type="MSShapeGroup"></path>
                            <g id="Group-4" stroke-width="1" fill="none" sketch:type="MSLayerGroup" transform="translate(0.000000, 45.778351)">
                                <mask id="mask-4" sketch:name="Clip 3" fill="white">
                                    <use xlink:href="#path-3"></use>
                                </mask>
                                <g id="Clip-3"></g>
                                <path d="M0.146747423,36.9978918 L58.5167113,36.9978918 L58.5167113,15.2014072 C58.5167113,10.0074897 53.5414175,7.08494845 48.9156649,5.74240206 L29.3315155,0.0534793814 L9.78758247,5.71373711 C5.15969072,7.05414433 0.146747423,10.0074897 0.146747423,15.2014072 L0.146747423,36.9978918" id="Fill-2" sketch:type="MSShapeGroup" mask="url(#mask-4)"></path>
                            </g>
                            <path d="M3.30759278,68.0048093 C3.31786082,75.2553299 55.7049794,75.8418918 55.7049794,68.0048093 L55.7049794,59.0545 C55.7049794,54.4886443 49.3144072,52.2326701 44.8786134,50.4319124 L28.7560773,43.8740567 L13.6201289,50.4032474 C9.2215567,52.2968454 3.30759278,54.4886443 3.30759278,59.0545 C3.30759278,62.6551598 3.30630928,64.6873763 3.30759278,68.0048093" id="Fill-5" fill="#FFFFFF" sketch:type="MSShapeGroup"></path>
                            <path d="M18.6732887,35.2176701 L39.9893144,35.2176701 L39.9893144,50.0032216 C39.9893144,53.942299 35.2108247,57.1386546 29.3173969,57.1386546 C24.5333454,57.1386546 18.6732887,54.4770928 18.6732887,49.5052216 L18.6732887,35.2176701" id="Fill-6" fill="#EEA243" sketch:type="MSShapeGroup"></path>
                            <path d="M29.3323711,6.65968041 C43.0748608,6.65968041 45.5058196,16.1054227 45.5058196,26.9193814 C45.5058196,37.7329124 37.1219639,45.8301186 29.3323711,45.8301186 C21.5427784,45.8301186 13.0998814,36.9884794 13.0998814,26.1758041 C13.0998814,15.3618454 15.5881701,6.65968041 29.3323711,6.65968041" id="Fill-7" fill="#EDB155" sketch:type="MSShapeGroup"></path>
                            <path d="M48.9156649,51.5207526 L47.0370412,50.9752629 C46.8162784,50.9093763 46.6203299,50.8529021 46.4393557,50.8015619 L45.9807165,50.6685052 C45.9807165,50.6697887 45.9802887,50.6706443 45.9798608,50.6715 C45.6611237,50.5820825 45.3363969,50.4896701 44.903,50.3574691 C43.7735155,57.5018866 37.186567,64.6856649 28.8899897,68.8194072 C20.6503144,65.0065412 14.7141031,57.7500309 14.0685,50.253933 C13.7146804,50.3703041 13.3510206,50.4712732 12.986933,50.5701031 C12.986933,50.5692474 12.9865052,50.5679639 12.9865052,50.5671082 L12.7511959,50.6355619 C12.4085,50.7284021 12.066232,50.8229536 11.7316649,50.9303402 L9.78758247,51.4920876 C5.15969072,52.8324948 0.146747423,55.7858402 0.146747423,60.9797577 L0.146747423,82.7762423 L58.5167113,82.7762423 L58.5167113,60.9797577 C58.5167113,55.7858402 53.5414175,52.863299 48.9156649,51.5207526" id="Fill-8" fill="#89DBC4" sketch:type="MSShapeGroup"></path>
                            <path d="M23.3088814,35.2176701 C23.2626753,35.4979021 23.2310155,35.7819845 23.2310155,36.0733402 C23.2310155,39.2243454 26.0401804,41.7780928 29.5060722,41.7780928 C32.9715361,41.7780928 35.7811289,39.2243454 35.7811289,36.0733402 C35.7811289,35.7819845 35.7494691,35.4979021 35.7028351,35.2176701 L23.3088814,35.2176701" id="Fill-9" fill="#FFFFFF" sketch:type="MSShapeGroup"></path>
                            <path d="M11.8998041,24.5632938 C11.8998041,24.5632938 11.7445,28.9845412 12.8140876,30.4100876 L13.8836753,31.8364897 L13.7352165,27.9316392 C13.7352165,27.9316392 11.9712526,25.1331701 11.8998041,24.5632938" id="Fill-10" fill="#EEA143" sketch:type="MSShapeGroup"></path>
                            <path d="M47.0622835,24.5632938 C47.0622835,24.5632938 47.2171598,28.9845412 46.1475722,30.4100876 C45.0779845,31.8364897 44.9239639,31.7774485 44.9239639,31.7774485 L45.2264433,27.9316392 C45.2264433,27.9316392 46.9908351,25.1331701 47.0622835,24.5632938" id="Fill-11" fill="#EEA143" sketch:type="MSShapeGroup"></path>
                            <path d="M44.7327216,9.44274742 C40.763268,3.40556701 31.8882577,2.15757216 29.7439485,1.94108763 C29.7422371,1.9162732 29.7413814,1.9004433 29.7413814,1.9004433 C29.7413814,1.9004433 29.6553866,1.90557732 29.5060722,1.91884021 C29.3563299,1.90557732 29.2707629,1.9004433 29.2707629,1.9004433 C29.2707629,1.9004433 29.2694794,1.9162732 29.2673402,1.94108763 C27.1230309,2.15757216 18.2488763,3.40556701 14.2794227,9.44274742 C9.74779381,16.3373093 10.214134,22.5824175 14.1459381,29.5368763 C14.1459381,29.5368763 14.0308505,28.930634 14.4792216,26.8847268 C14.8792474,25.0570155 16.7454639,22.6418866 15.9458402,21.286933 C15.1462165,19.9319794 13.8798247,18.9299897 14.2131082,17.2802577 C14.5455361,15.6300979 16.8117784,10.7390876 18.4110258,10.5623918 C20.010701,10.3856959 21.6766907,9.97326289 23.6763918,10.8571701 C25.3410979,11.5930464 27.8785876,12.0418454 29.1449794,12.239933 C29.1809175,12.3041082 29.2228454,12.3374794 29.2707629,12.3302062 C29.332799,12.3212216 29.4153711,12.3092423 29.5060722,12.2955515 C29.5963454,12.3092423 29.6784897,12.3212216 29.7413814,12.3302062 C29.7884433,12.3374794 29.8303711,12.3041082 29.8671649,12.239933 C31.1339845,12.0418454 33.6706186,11.5930464 35.3357526,10.8571701 C37.3354536,9.97326289 39.0014433,10.3856959 40.6006907,10.5623918 C42.200366,10.7390876 44.4661804,15.6300979 44.7990361,17.2802577 C45.1318918,18.9299897 43.8659278,19.9319794 43.0663041,21.286933 C42.2671082,22.6418866 44.1324691,25.0570155 44.5324948,26.8847268 C44.980866,28.930634 44.8662062,29.5368763 44.8662062,29.5368763 C48.7980103,22.5824175 49.2643505,16.3373093 44.7327216,9.44274742" id="Fill-12" fill="#282B29" sketch:type="MSShapeGroup"></path>
                        </g>
                    </g>
                    <rect id="Rectangle-45-Copy" fill-opacity="0.2" fill="#834621" sketch:type="MSShapeGroup" mask="url(#mask-2)" x="50" y="0" width="53" height="100"></rect>
                </g>
            </g>
        </g>
    </g>
</svg>