<?xml version="1.0" encoding="UTF-8" standalone="no"?>
<svg width="30px" height="61px" viewBox="0 0 30 61" version="1.1" xmlns="http://www.w3.org/2000/svg" xmlns:xlink="http://www.w3.org/1999/xlink" xmlns:sketch="http://www.bohemiancoding.com/sketch/ns">
    <!-- Generator: Sketch 3.4.3 (16618) - http://www.bohemiancoding.com/sketch -->
    <title>Group</title>
    <desc>Created with Sketch.</desc>
    <defs></defs>
    <g id="Page-1" stroke="none" stroke-width="1" fill="none" fill-rule="evenodd" sketch:type="MSPage">
        <g id="Desktop-HD" sketch:type="MSArtboardGroup" transform="translate(-1218.000000, -835.000000)">
            <g id="Group" sketch:type="MSLayerGroup" transform="translate(1218.000000, 836.000000)">
                <g id="Fill-7-+-Fill-7-Copy-2" transform="translate(4.054054, 35.675676)" sketch:type="MSShapeGroup">
                    <path d="M25.106651,12.1610341 C25.106651,18.8786722 19.4865335,24.3220682 12.5521974,24.3220682 C5.61898942,24.3220682 0,18.8786722 0,12.1610341 C0,5.44448884 5.61898942,0 12.5521974,0 C19.4865335,0 25.106651,5.44448884 25.106651,12.1610341" id="Fill-7" fill="#EECC62"></path>
                    <path d="M15.7973426,24.1499604 C15.1091185,24.2631333 14.4018147,24.3220682 13.680282,24.3220682 C6.74707403,24.3220682 1.12808461,18.8786722 1.12808461,12.1610341 C1.12808461,5.44448884 6.74707403,0 13.680282,0 C14.4018147,0 15.1091185,0.058946677 15.7973426,0.172139546 C10.6710051,1.14679403 6.76850764,6.14335989 6.76850764,12.1610341 C6.76850764,18.1796874 10.6710051,23.1754779 15.7973426,24.1499604 Z" id="Fill-7-Copy-2" fill="#EFD891"></path>
                </g>
                <path d="M8.91198525,25.6428631 L8.58448441,24.4875042 C8.55853151,24.3942647 8.39787072,24.3233216 8.22485141,24.324335 L6.33028996,24.3425776 C6.15727065,24.345618 5.99784571,24.4196015 5.97312867,24.5138545 L5.68146754,25.6732673 C5.64315613,25.8242747 5.79887351,25.9489319 6.03121372,25.9458915 L8.56841833,25.9225816 C8.80075855,25.9195412 8.95400422,25.7918436 8.91198525,25.6428631" id="Fill-15" fill="#B9A360" sketch:type="MSShapeGroup" transform="translate(7.297297, 25.135135) scale(-1, 1) translate(-7.297297, -25.135135) "></path>
                <g id="Fill-13-+-Fill-7-Copy-2" transform="translate(0.000000, 24.324324)" sketch:type="MSShapeGroup">
                    <path d="M13.6919751,6.46565489 C13.6919751,10.0388358 10.6271102,12.9334304 6.84598753,12.9334304 C3.0637422,12.9334304 0,10.0388358 0,6.46565489 C0,2.89459459 3.0637422,0 6.84598753,0 C10.6271102,0 13.6919751,2.89459459 13.6919751,6.46565489" id="Fill-13" fill="#D0011B"></path>
                    <path d="M8.66902964,11.8085713 C8.26964743,11.8833517 7.85669819,11.9225622 7.4340386,11.9225622 C3.94794837,11.9225622 1.12266112,9.25423535 1.12266112,5.9612811 C1.12266112,2.66886255 3.94794837,0 7.4340386,0 C7.85669819,0 8.26964743,0.0392183296 8.66902964,0.114011623 C6.2864413,0.656212721 4.49064449,3.06797611 4.49064449,5.9612811 C4.49064449,8.85505685 6.2864413,11.2664636 8.66902964,11.8085713 Z" id="Fill-7-Copy-2" fill="#F2776E"></path>
                </g>
                <path d="M17.027027,36.4864865 C17.027027,36.4864865 9.38032053,28.8851351 10.6918306,32.6858108 C12.0033407,36.4864865 17.027027,36.4864865 17.027027,36.4864865 Z" id="Path-405" stroke="#A78F46" sketch:type="MSShapeGroup"></path>
                <path d="M17.027027,36.0136538 C17.027027,34.7701472 21.8918918,29.3611885 21.8918919,32.6874212 C21.8918919,36.0136538 17.027027,37.2571603 17.027027,36.0136538 Z" id="Path-406" stroke="#A78F46" sketch:type="MSShapeGroup"></path>
                <path d="M12.1621622,24.3243243 C12.1621622,24.3243243 5.47129398,17.9898649 6.61886531,21.1570946 C7.76643664,24.3243243 12.1621622,24.3243243 12.1621622,24.3243243 Z" id="Path-405-Copy" stroke="#A78F46" sketch:type="MSShapeGroup" transform="translate(9.324324, 22.297297) scale(-1, 1) translate(-9.324324, -22.297297) "></path>
                <path d="M1.62162162,23.8514916 C1.62162162,22.6079851 6.48648643,17.1990264 6.48648649,20.525259 C6.48648654,23.8514916 1.62162162,25.0949982 1.62162162,23.8514916 Z" id="Path-406-Copy" stroke="#A78F46" sketch:type="MSShapeGroup" transform="translate(4.054054, 21.891892) scale(-1, 1) translate(-4.054054, -21.891892) "></path>
                <path d="M11.3855949,38.9189189 C11.3855949,38.9189189 15.9634191,38.4966472 16.9634153,34.1348382 C17.9634115,29.7730291 6.78771356,3.06583249 10.4811093,0.60224468 C14.1745051,-1.86134313 13.6186333,4.02945165 13.6186333,4.02945165" id="Path-407" stroke="#A78F46" sketch:type="MSShapeGroup"></path>
                <path d="M4.86486486,24.2046278 C4.86486486,24.2046278 7.16116211,25.1878139 8.23543527,21.5185513 C9.30970842,17.8492888 6.06970377,2.53068733 10.0374348,0.458255815 C14.0051659,-1.6141757 13.7814873,4.01465036 13.7814873,4.01465036" id="Path-407-Copy" stroke="#A78F46" sketch:type="MSShapeGroup"></path>
            </g>
        </g>
    </g>
</svg>