<?xml version="1.0" encoding="UTF-8" standalone="no"?>
<svg width="44px" height="39px" viewBox="0 0 44 39" version="1.1" xmlns="http://www.w3.org/2000/svg" xmlns:xlink="http://www.w3.org/1999/xlink" xmlns:sketch="http://www.bohemiancoding.com/sketch/ns">
    <!-- Generator: Sketch 3.4.1 (15681) - http://www.bohemiancoding.com/sketch -->
    <title>Error icon</title>
    <desc>Created with Sketch.</desc>
    <defs></defs>
    <g id="Page-1" stroke="none" stroke-width="1" fill="none" fill-rule="evenodd" sketch:type="MSPage">
        <g id="GC-Error" sketch:type="MSArtboardGroup" transform="translate(-183.000000, -32.000000)">
            <g id="Error-icon" sketch:type="MSLayerGroup" transform="translate(183.000000, 32.000000)">
                <path d="M22.0355239,38.7082396 C16.4395097,38.7101988 10.8428326,38.7330557 5.24681841,38.6896276 C4.21685478,38.681791 3.1345145,38.5567313 2.17184492,38.2213886 C0.510378,37.6414776 -0.335935855,36.0101512 0.124514574,34.3249479 C0.407945183,33.2885528 0.886959488,32.2769737 1.43260485,31.3414753 C6.82673687,22.0890203 12.2530242,12.8548509 17.6700295,3.61513046 C17.757545,3.46623438 17.8384304,3.31341997 17.9279348,3.16583 C20.4821253,-1.03428039 23.6001935,-1.06987178 26.0943828,3.14689146 C30.8440832,11.1758516 35.5361029,19.2381174 40.2503329,27.2879753 C41.2398538,28.9770969 42.2890443,30.6365045 43.1943648,32.3687276 C45.1094275,36.0317019 43.5248681,38.6550158 39.3486589,38.6925664 C33.5779454,38.7448106 27.8065689,38.705954 22.0355239,38.7082396" id="Fill-1" fill="#F94F48" sketch:type="MSShapeGroup"></path>
                <path d="M24.9792646,13.3579642 C25.0647752,11.3474213 23.8115199,9.96548714 21.9344873,10.0006561 C20.1531666,10.0343474 18.8318029,11.4405157 19.058631,13.3458472 C19.4372779,16.5311523 19.9341395,19.7061137 20.5144114,22.8618651 C20.5795195,23.2171014 21.5021338,23.6293765 22.0298992,23.6332184 C22.5525639,23.637356 23.4787787,23.2271497 23.5408864,22.8793018 C24.1061564,19.7202995 24.5211078,16.5355854 24.9792646,13.3579642 Z M22.0659036,25.3556121 C20.4640051,25.3171922 19.0151256,26.7139033 19.0001238,28.3109889 C18.9854219,29.8587198 20.2824826,31.2045984 21.8657788,31.2849846 C23.4928804,31.3683263 24.9513611,30.0395888 24.998767,28.4300906 C25.046773,26.8202968 23.6864044,25.3943275 22.0659036,25.3556121 Z" id="Path" fill="#FFFFFF" sketch:type="MSShapeGroup"></path>
            </g>
        </g>
    </g>
</svg>