<?xml version="1.0" encoding="UTF-8" standalone="no"?>
<svg width="100px" height="100px" viewBox="0 0 100 100" version="1.1" xmlns="http://www.w3.org/2000/svg" xmlns:xlink="http://www.w3.org/1999/xlink" xmlns:sketch="http://www.bohemiancoding.com/sketch/ns">
    <!-- Generator: Sketch 3.3.3 (12081) - http://www.bohemiancoding.com/sketch -->
    <title>girl</title>
    <desc>Created with Sketch.</desc>
    <defs>
        <path id="path-1" d="M50,100 C77.6142375,100 100,77.6142375 100,50 C100,22.3857625 77.6142375,0 50,0 C22.3857625,0 0,22.3857625 0,50 C0,77.6142375 22.3857625,100 50,100 Z"></path>
    </defs>
    <g id="Page-1" stroke="none" stroke-width="1" fill="none" fill-rule="evenodd" sketch:type="MSPage">
        <g id="Step-2" sketch:type="MSArtboardGroup" transform="translate(-155.000000, -369.000000)">
            <g id="Gender-icons" sketch:type="MSLayerGroup" transform="translate(35.000000, 369.000000)">
                <g id="girl" transform="translate(120.000000, 0.000000)">
                    <mask id="mask-2" sketch:name="Mask" fill="white">
                        <use xlink:href="#path-1"></use>
                    </mask>
                    <use id="Mask" opacity="0.649195429" fill="#C383FB" sketch:type="MSShapeGroup" xlink:href="#path-1"></use>
                    <g mask="url(#mask-2)" sketch:type="MSShapeGroup">
                        <g transform="translate(24.000000, 17.000000)">
                            <path d="M28.0198187,26.2889603 L47.1667105,26.2889603 L47.1667105,73.3972747 L28.0198187,73.3972747 L28.0198187,26.2889603 Z" id="Fill-1" fill="#683222"></path>
                            <path d="M8.61738598,26.2889603 L27.7642777,26.2889603 L27.7642777,73.3972747 L8.61738598,73.3972747 L8.61738598,26.2889603 Z" id="Fill-2" fill="#7C4A38"></path>
                            <path d="M55.9821758,82.6168687 L55.9821758,62.2828743 C55.9821758,57.2164344 50.954978,53.3515512 46.3169314,51.7893405 L27.4395957,45.4423924 L9.76475126,51.7585074 C5.15426757,53.4048084 0.0560601929,57.2164344 0.0560601929,62.2828743 L0.0560601929,82.6168687 L55.9821758,82.6168687 Z" id="Fill-3" fill="#F94F48"></path>
                            <path d="M18.1915326,33.703388 L37.8476377,33.703388 L37.8476377,50.1061332 C37.8476377,54.4750909 33.4408394,58.0194966 28.006738,58.0194966 C23.5962024,58.0194966 18.1915326,55.069329 18.1915326,49.553006 L18.1915326,33.703388" id="Fill-4" fill="#D6B270"></path>
                            <path d="M45.0994908,23.7513022 C45.0994908,35.7514537 35.8649756,45.4764956 28.0193516,45.4764956 C20.1760634,45.4764956 10.9396795,35.7514537 10.9396795,23.7513022 C10.9396795,11.7558224 14.1804258,2.02377296 28.0193516,2.02377296 C41.8596789,2.02377296 45.0994908,11.7558224 45.0994908,23.7513022 Z" id="Fill-5" fill="#EFCF9B"></path>
                            <path d="M28.375801,0.168647747 C37.2407861,0.168647747 42.4174778,4.0891239 44.9906406,10.0529941 C49.0423911,19.4524198 47.4227187,39.1360878 40.2409408,46.3486988 C42.2236029,41.1892924 43.4443136,32.4448366 40.730066,25.577463 C36.7857642,15.5987487 21.1304882,15.8982035 19.1758561,3.06228804 C22.5866517,1.03384339 25.1635519,0.168647747 28.375801,0.168647747" id="Fill-6" fill="#683222"></path>
                            <path d="M8.6318682,23.5088419 C8.6318682,35.5033873 13.2601043,45.4190339 14.9904956,46.3486988 C12.6775268,31.4609102 12.9601823,18.4662275 22.4661223,10.2076268 C22.4661223,10.2076268 19.5710805,5.79008359 19.1758561,3.06228804 C12.3608051,3.8667518 8.6318682,11.5128949 8.6318682,23.5088419 Z" id="Fill-7" fill="#7C4A38"></path>
                            <path d="M18.1934013,46.2786236 L28.0721416,57.5691464 L37.8476377,47.6534998 L42.198843,50.4074568 L33.9243586,63.6478489 L28.0581265,58.170392 L22.2586996,63.3484851 L13.7725879,50.327571 L18.1934013,46.2786236 Z" id="Fill-8" fill="#FFFFFF"></path>
                            <path d="M14.1799586,27.3508338 L12.1113375,23.2584397 C12.1113375,23.2584397 10.5416521,29.1760602 13.8580797,31.6749433 L14.1799586,27.3508338" id="Fill-9" fill="#D6B471"></path>
                            <path d="M23.0556887,36.9455358 L32.9830145,36.9455358 C32.9830145,36.9455358 28.3113317,43.7194758 23.0556887,36.9455358" id="Fill-10" fill="#D6262F"></path>
                        </g>
                    </g>
                    <rect id="Rectangle-45" fill-opacity="0.2" fill="#834621" sketch:type="MSShapeGroup" mask="url(#mask-2)" x="50" y="0" width="53" height="100"></rect>
                </g>
            </g>
        </g>
    </g>
</svg>