<?xml version="1.0" encoding="UTF-8" standalone="no"?>
<svg width="11px" height="18px" viewBox="0 0 11 18" version="1.1" xmlns="http://www.w3.org/2000/svg" xmlns:xlink="http://www.w3.org/1999/xlink" xmlns:sketch="http://www.bohemiancoding.com/sketch/ns">
    <!-- Generator: Sketch 3.5.1 (25234) - http://www.bohemiancoding.com/sketch -->
    <title>Close icon Copy 3</title>
    <desc>Created with Sketch.</desc>
    <defs></defs>
    <g id="Page-1" stroke="none" stroke-width="1" fill="none" fill-rule="evenodd" sketch:type="MSPage">
        <g id="Artboard-6" sketch:type="MSArtboardGroup" transform="translate(-565.000000, -124.000000)" fill="#FFFFFF">
            <g id="Group" sketch:type="MSLayerGroup" transform="translate(548.000000, 80.000000)">
                <g id="Rectangle-144-Copy-+-Close-icon-Copy-3" transform="translate(0.000000, 28.000000)" sketch:type="MSShapeGroup">
                    <path d="M30.4707269,18.7244273 L20.9621302,18.7244273 C20.2328615,18.7244273 19.636039,19.3180195 19.636039,20.0502525 C19.636039,20.7875906 20.2297502,21.3760777 20.9621302,21.3760777 L29.6239223,21.3760777 L29.6239223,30.0378698 C29.6239223,30.7671385 30.2175144,31.363961 30.9497475,31.363961 C31.6870855,31.363961 32.2755727,30.7702498 32.2755727,30.0378698 L32.2755727,20.5262059 C32.332637,20.3784782 32.363961,20.2180036 32.363961,20.0502525 C32.363961,19.6511417 32.1900092,19.2956428 31.9142715,19.0534785 C31.672529,18.7968316 31.3298141,18.636039 30.9497475,18.636039 C30.7804532,18.636039 30.6190059,18.6673377 30.4707269,18.7244273 Z" id="Close-icon-Copy-3" transform="translate(26.000000, 25.000000) scale(-1, 1) rotate(-315.000000) translate(-26.000000, -25.000000) "></path>
                </g>
            </g>
        </g>
    </g>
</svg>